<svg xmlns="http://www.w3.org/2000/svg" width="500" height="500" viewBox="0 0 1000 1000">
  <metadata><?xpacket begin="﻿" id="W5M0MpCehiHzreSzNTczkc9d"?>
<x:xmpmeta xmlns:x="adobe:ns:meta/" x:xmptk="Adobe XMP Core 5.6-c142 79.160924, 2017/07/13-01:06:39        ">
   <rdf:RDF xmlns:rdf="http://www.w3.org/1999/02/22-rdf-syntax-ns#">
      <rdf:Description rdf:about=""/>
   </rdf:RDF>
</x:xmpmeta>
                                                                                                    
                                                                                                    
                                                                                                    
                                                                                                    
                                                                                                    
                                                                                                    
                                                                                                    
                                                                                                    
                                                                                                    
                                                                                                    
                                                                                                    
                                                                                                    
                                                                                                    
                                                                                                    
                                                                                                    
                                                                                                    
                                                                                                    
                                                                                                    
                                                                                                    
                                                                                                    
                           
<?xpacket end="w"?></metadata>
<defs>
    <style>
      .cls-1, .cls-2 {
        fill: #fff;
      }

      .cls-2, .cls-3 {
        fill-rule: evenodd;
      }

      .cls-3 {
        fill: none;
        stroke: #fff;
        stroke-linecap: round;
        stroke-width: 10px;
      }
    </style>
  </defs>
  <circle class="cls-1" cx="426.375" cy="521.532" r="12.781"/>
  <circle class="cls-1" cx="447.25" cy="580.188" r="12.781"/>
  <path class="cls-2" d="M434.456,300.36a12.812,12.812,0,1,1-12.79,12.811A12.8,12.8,0,0,1,434.456,300.36Z"/>
  <path class="cls-2" d="M434.456,239a12.812,12.812,0,1,1-12.79,12.811A12.8,12.8,0,0,1,434.456,239Z"/>
  <path class="cls-3" d="M424.358,315.194l-96.937,2.023c-15.634,4.635-24.562,19.973-21.541,33.714,2.353,10.705,11.812,19.591,24.234,21.578l5.048-.075,40.728-.6q0.384,57.82.77,115.642l0.576,86.644c-26.78-3.594-51.376-13.22-72.029-28.994-53.1-40.555-69.7-113.274-55.2-171.943,9.241-37.391,34.693-82.891,82.127-107.212,19.709-10.1,42.9-15.984,66.726-17.313a173.233,173.233,0,0,1,25.5.456"/>
  <path class="cls-3" d="M455.324,573.446a166.816,166.816,0,0,0,74.722-49.9,169.481,169.481,0,0,0,39.717-97.1c2.1-28.715-2.387-52.319-10.1-71.474a152.872,152.872,0,0,0-56.547-69.451q-0.672,30.679-1.346,61.36a28.192,28.192,0,0,1-6.059,14.16,28.54,28.54,0,0,1-18.175,10.114l-49.142-.674q1.01,70.125,2.02,140.251"/>
</svg>
